<?xml version="1.0" standalone="no"?>
<!DOCTYPE svg PUBLIC "-//W3C//DTD SVG 20010904//EN"
 "http://www.w3.org/TR/2001/REC-SVG-20010904/DTD/svg10.dtd">
<svg version="1.0" xmlns="http://www.w3.org/2000/svg"
 width="96.000000pt" height="96.000000pt" viewBox="0 0 96.000000 96.000000"
 preserveAspectRatio="xMidYMid meet">

<g transform="translate(0.000000,96.000000) scale(0.100000,-0.100000)"
fill="#000000" stroke="none">
<path d="M390 814 c-120 -32 -213 -127 -245 -249 -19 -74 -19 -96 0 -170 33
-128 127 -219 258 -251 195 -48 381 78 419 284 9 50 8 72 -6 129 -32 131 -123
225 -251 258 -72 18 -103 18 -175 -1z m190 -153 c0 -37 -2 -40 -32 -43 -28 -2
-34 -8 -36 -30 -3 -26 -1 -28 33 -28 36 0 36 0 33 -37 -3 -35 -6 -38 -35 -41
l-33 -3 0 -110 0 -109 -45 0 -45 0 0 110 c0 103 -1 110 -20 110 -17 0 -20 7
-20 40 0 32 4 40 19 40 15 0 20 10 25 49 9 67 36 89 114 90 l42 1 0 -39z"/>
</g>
</svg>
