<?xml version="1.0" standalone="no"?>
<!DOCTYPE svg PUBLIC "-//W3C//DTD SVG 20010904//EN"
 "http://www.w3.org/TR/2001/REC-SVG-20010904/DTD/svg10.dtd">
<svg version="1.0" xmlns="http://www.w3.org/2000/svg"
 width="96.000000pt" height="96.000000pt" viewBox="0 0 96.000000 96.000000"
 preserveAspectRatio="xMidYMid meet">

<g transform="translate(0.000000,96.000000) scale(0.100000,-0.100000)"
fill="#000000" stroke="none">
<path d="M361 944 c-253 -68 -410 -331 -346 -579 67 -256 329 -415 580 -350
256 67 415 329 350 578 -67 259 -333 419 -584 351z m304 -233 c59 -34 70 -69
70 -231 0 -164 -10 -196 -75 -235 -31 -18 -52 -20 -180 -20 -128 0 -149 2
-180 20 -63 38 -72 65 -72 234 0 163 9 195 59 228 50 33 322 36 378 4z"/>
<path d="M324 676 c-43 -19 -54 -58 -54 -196 0 -197 13 -210 208 -210 200 0
212 12 212 210 0 143 -12 182 -60 199 -47 16 -267 14 -306 -3z m316 -41 c18
-21 5 -45 -25 -45 -40 0 -34 54 6 59 4 1 12 -6 19 -14z m-99 -40 c64 -34 87
-120 49 -182 -50 -83 -170 -83 -220 0 -68 111 55 242 171 182z"/>
<path d="M420 540 c-13 -13 -20 -33 -20 -60 0 -27 7 -47 20 -60 13 -13 33 -20
60 -20 27 0 47 7 60 20 13 13 20 33 20 60 0 27 -7 47 -20 60 -13 13 -33 20
-60 20 -27 0 -47 -7 -60 -20z"/>
</g>
</svg>
