<?xml version="1.0" standalone="no"?>
<!DOCTYPE svg PUBLIC "-//W3C//DTD SVG 20010904//EN"
 "http://www.w3.org/TR/2001/REC-SVG-20010904/DTD/svg10.dtd">
<svg version="1.0" xmlns="http://www.w3.org/2000/svg"
 width="96.000000pt" height="96.000000pt" viewBox="0 0 96.000000 96.000000"
 preserveAspectRatio="xMidYMid meet">

<g transform="translate(0.000000,96.000000) scale(0.100000,-0.100000)"
fill="#000000" stroke="none">
<path d="M361 944 c-253 -68 -410 -331 -346 -579 67 -256 329 -415 580 -350
256 67 415 329 350 578 -67 259 -333 419 -584 351z m-31 -244 c24 -24 25 -38
4 -68 -17 -25 -71 -31 -92 -10 -18 18 -15 75 6 87 27 16 60 13 82 -9z m330
-143 c13 -7 35 -28 47 -46 21 -31 23 -46 23 -152 l0 -119 -55 0 -55 0 0 108
c0 117 -6 132 -51 132 -50 0 -59 -21 -59 -136 l0 -104 -55 0 -55 0 0 160 0
160 55 0 c42 0 55 -4 55 -15 0 -12 6 -11 33 5 37 23 81 25 117 7z m-320 -157
l0 -160 -55 0 -55 0 0 160 0 160 55 0 55 0 0 -160z"/>
</g>
</svg>
